<svg width="140" height="40" viewBox="0 0 140 40" fill="none" xmlns="http://www.w3.org/2000/svg">
<path d="M32 6H127C134.18 6 140 11.8203 140 19V19C140 26.1797 134.18 32 127 32H32V6Z" fill="#F16886"/>
<path d="M43.18 14.22C43.18 13.8867 43.3067 13.6 43.56 13.36C43.8267 13.12 44.1467 13 44.52 13H53.58C53.58 13.8 53.44 14.3867 53.16 14.76C52.8933 15.12 52.4533 15.3 51.84 15.3H45.86V18.68H51.18C51.18 19.48 51.04 20.0667 50.76 20.44C50.4933 20.8 50.0533 20.98 49.44 20.98H45.86V25.28C45.86 25.9467 45.6467 26.4333 45.22 26.74C44.7933 27.0333 44.1133 27.18 43.18 27.18V14.22ZM56.9345 27.18C56.1079 27.18 55.3545 27.02 54.6745 26.7C53.9945 26.3667 53.4545 25.92 53.0545 25.36C52.6545 24.7867 52.4545 24.1467 52.4545 23.44V20.78C52.4545 20.0333 52.6612 19.36 53.0745 18.76C53.4879 18.16 54.0345 17.6867 54.7145 17.34C55.4079 16.9933 56.1545 16.82 56.9545 16.82C57.7412 16.82 58.4612 16.9867 59.1145 17.32C59.7812 17.64 60.3079 18.0933 60.6945 18.68C61.0812 19.2533 61.2745 19.9133 61.2745 20.66V21.78C61.2745 22.0733 61.1612 22.32 60.9345 22.52C60.7212 22.72 60.4479 22.82 60.1145 22.82H54.8745V23.26C54.8745 23.8333 55.0479 24.3 55.3945 24.66C55.7412 25.02 56.2612 25.2 56.9545 25.2C57.6212 25.2 58.1145 25.0533 58.4345 24.76C58.7679 24.4667 58.9345 24.0867 58.9345 23.62C59.1745 23.5933 59.3412 23.58 59.4345 23.58C59.9279 23.58 60.3145 23.6933 60.5945 23.92C60.8745 24.1333 61.0145 24.44 61.0145 24.84C61.0145 25.2267 60.8345 25.6 60.4745 25.96C60.1145 26.32 59.6212 26.6133 58.9945 26.84C58.3679 27.0667 57.6812 27.18 56.9345 27.18ZM59.0145 21.04V20.66C59.0145 20.1 58.8212 19.6467 58.4345 19.3C58.0479 18.9533 57.5479 18.78 56.9345 18.78C56.3212 18.78 55.8212 18.9533 55.4345 19.3C55.0612 19.6333 54.8745 20.0867 54.8745 20.66V21.04H59.0145ZM67.5595 27.18C66.7329 27.18 65.9795 27.02 65.2995 26.7C64.6195 26.3667 64.0795 25.92 63.6795 25.36C63.2795 24.7867 63.0795 24.1467 63.0795 23.44V20.78C63.0795 20.0333 63.2862 19.36 63.6995 18.76C64.1129 18.16 64.6595 17.6867 65.3395 17.34C66.0329 16.9933 66.7795 16.82 67.5795 16.82C68.3662 16.82 69.0862 16.9867 69.7395 17.32C70.4062 17.64 70.9329 18.0933 71.3195 18.68C71.7062 19.2533 71.8995 19.9133 71.8995 20.66V21.78C71.8995 22.0733 71.7862 22.32 71.5595 22.52C71.3462 22.72 71.0729 22.82 70.7395 22.82H65.4995V23.26C65.4995 23.8333 65.6729 24.3 66.0195 24.66C66.3662 25.02 66.8862 25.2 67.5795 25.2C68.2462 25.2 68.7395 25.0533 69.0595 24.76C69.3929 24.4667 69.5595 24.0867 69.5595 23.62C69.7995 23.5933 69.9662 23.58 70.0595 23.58C70.5529 23.58 70.9395 23.6933 71.2195 23.92C71.4995 24.1333 71.6395 24.44 71.6395 24.84C71.6395 25.2267 71.4595 25.6 71.0995 25.96C70.7395 26.32 70.2462 26.6133 69.6195 26.84C68.9929 27.0667 68.3062 27.18 67.5595 27.18ZM69.6395 21.04V20.66C69.6395 20.1 69.4462 19.6467 69.0595 19.3C68.6729 18.9533 68.1729 18.78 67.5595 18.78C66.9462 18.78 66.4462 18.9533 66.0595 19.3C65.6862 19.6333 65.4995 20.0867 65.4995 20.66V21.04H69.6395ZM77.5045 27.18C76.7845 27.18 76.1379 27.0267 75.5645 26.72C74.9912 26.4133 74.5379 25.9933 74.2045 25.46C73.8712 24.9133 73.7045 24.2867 73.7045 23.58V20.42C73.7045 19.7267 73.8779 19.1067 74.2245 18.56C74.5712 18.0133 75.0512 17.5867 75.6645 17.28C76.2912 16.9733 76.9845 16.82 77.7445 16.82C78.2379 16.82 78.7445 16.9267 79.2645 17.14C79.7979 17.34 80.2445 17.6133 80.6045 17.96L80.6845 17.86C80.6179 17.7533 80.4712 17.62 80.2445 17.46V14.5C80.2445 13.9667 80.4512 13.5533 80.8645 13.26C81.2912 12.9667 81.9312 12.82 82.7845 12.82V25.46C82.7845 25.9533 82.5979 26.3667 82.2245 26.7C81.8512 27.02 81.2712 27.18 80.4845 27.18V26.08C80.6579 25.8667 80.7845 25.6933 80.8645 25.56L80.7645 25.48C80.3512 26.04 79.8912 26.4667 79.3845 26.76C78.8912 27.04 78.2645 27.18 77.5045 27.18ZM78.2445 25.02C78.8445 25.02 79.3312 24.88 79.7045 24.6C80.0912 24.3067 80.2845 23.94 80.2845 23.5V20.48C80.2845 20.0533 80.0912 19.7 79.7045 19.42C79.3312 19.1267 78.8379 18.98 78.2245 18.98C77.5712 18.98 77.0645 19.12 76.7045 19.4C76.3579 19.6667 76.1845 20.0533 76.1845 20.56V23.4C76.1845 23.9333 76.3579 24.34 76.7045 24.62C77.0645 24.8867 77.5779 25.02 78.2445 25.02ZM86.4731 27C86.1131 27 85.7998 26.88 85.5331 26.64C85.2665 26.4 85.1331 26.1133 85.1331 25.78V14.22C85.1331 13.8867 85.2598 13.6 85.5131 13.36C85.7798 13.12 86.0998 13 86.4731 13H91.8531C93.1331 13 94.1531 13.36 94.9131 14.08C95.6865 14.7867 96.0731 15.74 96.0731 16.94C96.0731 17.5133 95.9198 18.06 95.6131 18.58C95.3065 19.0867 94.8998 19.48 94.3931 19.76V19.82C95.0865 20.06 95.6331 20.4533 96.0331 21C96.4465 21.5467 96.6531 22.1733 96.6531 22.88C96.6531 23.68 96.4665 24.3933 96.0931 25.02C95.7198 25.6467 95.1998 26.1333 94.5331 26.48C93.8665 26.8267 93.1065 27 92.2531 27H86.4731ZM91.8131 18.88C92.2531 18.88 92.6265 18.7 92.9331 18.34C93.2531 17.98 93.4131 17.5467 93.4131 17.04C93.4131 16.4933 93.2665 16.06 92.9731 15.74C92.6931 15.42 92.3065 15.26 91.8131 15.26H87.7331V18.88H91.8131ZM92.2131 24.74C92.7598 24.74 93.1931 24.58 93.5131 24.26C93.8331 23.9267 93.9931 23.4733 93.9931 22.9C93.9931 22.34 93.8331 21.9067 93.5131 21.6C93.2065 21.28 92.7731 21.12 92.2131 21.12H87.7331V24.74H92.2131ZM101.793 27.18C101.113 27.18 100.486 27.0467 99.913 26.78C99.353 26.5133 98.8996 26.1333 98.553 25.64C98.2196 25.1333 98.053 24.5333 98.053 23.84C98.053 23.1467 98.233 22.5467 98.593 22.04C98.953 21.52 99.4396 21.1267 100.053 20.86C100.68 20.58 101.366 20.44 102.113 20.44C102.726 20.44 103.273 20.54 103.753 20.74C104.246 20.9267 104.7 21.2133 105.113 21.6L105.213 21.5C105.093 21.38 104.886 21.2 104.593 20.96V20.56C104.593 20.0133 104.4 19.58 104.013 19.26C103.626 18.94 103.086 18.78 102.393 18.78C101.153 18.78 100.24 19.2333 99.653 20.14C99.3596 20.0467 99.113 19.9 98.913 19.7C98.713 19.4867 98.613 19.26 98.613 19.02C98.613 18.62 98.793 18.2533 99.153 17.92C99.513 17.5867 99.9996 17.32 100.613 17.12C101.226 16.92 101.893 16.82 102.613 16.82C104.026 16.82 105.12 17.1533 105.893 17.82C106.666 18.4733 107.053 19.3667 107.053 20.5V25.5C107.053 26.0867 106.866 26.5133 106.493 26.78C106.12 27.0467 105.533 27.18 104.733 27.18V26.36C104.96 26.1333 105.113 25.9667 105.193 25.86L105.113 25.76C104.673 26.2267 104.2 26.58 103.693 26.82C103.2 27.06 102.566 27.18 101.793 27.18ZM102.433 25.36C103.126 25.36 103.666 25.2267 104.053 24.96C104.44 24.6933 104.633 24.3133 104.633 23.82C104.633 23.34 104.433 22.96 104.033 22.68C103.646 22.4 103.12 22.26 102.453 22.26C101.84 22.26 101.353 22.4 100.993 22.68C100.646 22.9467 100.473 23.3267 100.473 23.82C100.473 24.3267 100.646 24.7133 100.993 24.98C101.34 25.2333 101.82 25.36 102.433 25.36ZM113.3 27.18C112.434 27.18 111.667 27.0267 111 26.72C110.334 26.4 109.814 25.96 109.44 25.4C109.067 24.84 108.88 24.2067 108.88 23.5V20.7C108.88 19.94 109.067 19.2667 109.44 18.68C109.814 18.0933 110.334 17.64 111 17.32C111.667 16.9867 112.427 16.82 113.28 16.82C114.08 16.82 114.787 16.9333 115.4 17.16C116.027 17.3867 116.514 17.7067 116.86 18.12C117.207 18.52 117.38 18.9867 117.38 19.52C117.38 19.9333 117.22 20.2667 116.9 20.52C116.58 20.7733 116.16 20.9 115.64 20.9C115.494 20.9 115.387 20.8933 115.32 20.88C115.32 20.3067 115.134 19.8467 114.76 19.5C114.4 19.1533 113.927 18.98 113.34 18.98C112.754 18.98 112.274 19.1467 111.9 19.48C111.54 19.8133 111.36 20.2533 111.36 20.8V23.32C111.36 23.8267 111.547 24.24 111.92 24.56C112.294 24.8667 112.774 25.02 113.36 25.02C113.947 25.02 114.427 24.8467 114.8 24.5C115.174 24.14 115.36 23.6867 115.36 23.14C115.44 23.1267 115.554 23.12 115.7 23.12C116.22 23.12 116.64 23.24 116.96 23.48C117.28 23.72 117.44 24.0467 117.44 24.46C117.44 24.9933 117.26 25.4667 116.9 25.88C116.554 26.28 116.067 26.6 115.44 26.84C114.814 27.0667 114.1 27.18 113.3 27.18ZM128.372 26.46C128.252 26.6867 128.079 26.8667 127.852 27C127.625 27.12 127.365 27.18 127.072 27.18C126.819 27.18 126.592 27.12 126.392 27C126.192 26.8933 125.999 26.7133 125.812 26.46L123.172 22.56L121.812 23.82V25.66C121.812 26.1933 121.605 26.58 121.192 26.82C120.792 27.06 120.179 27.18 119.352 27.18V14.74C119.352 13.46 120.185 12.82 121.852 12.82V21.08L126.432 16.82C127.099 17.34 127.432 17.7667 127.432 18.1C127.432 18.3133 127.372 18.5 127.252 18.66C127.145 18.82 126.972 19.0067 126.732 19.22L124.632 21.18L128.372 26.46Z" fill="white"/>
<circle cx="20" cy="20" r="20" fill="#F16886"/>
<circle cx="20" cy="20" r="15" fill="white"/>
<path d="M9.5 18.1891C9.5 23.2437 13.6779 25.9373 16.7362 28.3482C17.8154 29.199 18.8549 30 19.8943 30C20.9337 30 21.9731 29.199 23.0524 28.3482C26.1107 25.9373 30.2886 23.2437 30.2886 18.1891C30.2886 13.1344 24.5715 9.54972 19.8943 14.4092C15.217 9.54972 9.5 13.1344 9.5 18.1891Z" fill="#F16886"/>
</svg>
